<svg xmlns="http://www.w3.org/2000/svg" xmlns:xlink="http://www.w3.org/1999/xlink" width="532" height="532" viewBox="0 0 532 532" fill="none"><defs><rect id="path_0" x="0" y="0" width="532" height="532" /></defs><g opacity="1" transform="translate(0 0)  rotate(0 266 266)"><mask id="bg-mask-0" fill="white"><use xlink:href="#path_0"></use></mask><g mask="url(#bg-mask-0)" ><path  id="路径 12" style="stroke:#262E88; stroke-width:10; stroke-opacity:1; stroke-dasharray:0 0" transform="translate(154 66)  rotate(180 109.76288659793812 63.00000000000001)" d="M21.21,112.43C0,126 58.54,83.29 107.99,83C139.51,82.81 176.16,100.33 198.6,113.06C200.13,113.98 202.09,113.65 203.24,112.29C204.39,110.93 204.38,108.93 203.22,107.58L110.27,2.58C109.69,1.93 108.87,1.57 108,1.57C107.13,1.58 106.31,1.96 105.75,2.62L16.39,106.88C15.24,108.29 15.27,110.31 16.46,111.68C17.65,113.05 19.66,113.36 21.21,112.43Z " /><path  id="路径 12" style="stroke:#262E88; stroke-width:10; stroke-opacity:1; stroke-dasharray:0 0" transform="translate(156 345)  rotate(0 109.76288659793812 63.00000000000001)" d="M21.21,112.43C0,126 58.54,83.29 107.99,83C139.51,82.81 176.16,100.33 198.6,113.06C200.13,113.98 202.09,113.65 203.24,112.29C204.39,110.93 204.38,108.93 203.22,107.58L110.27,2.58C109.69,1.93 108.87,1.57 108,1.57C107.13,1.58 106.31,1.96 105.75,2.62L16.39,106.88C15.24,108.29 15.27,110.31 16.46,111.68C17.65,113.05 19.66,113.36 21.21,112.43Z " /><path  id="路径 12" style="stroke:#262E88; stroke-width:10; stroke-opacity:1; stroke-dasharray:0 0" transform="translate(336.76 213.76)  rotate(-90 89 51)" d="M21.26,88.7C0,102 47.46,67.43 87.56,67.19C111.3,67.05 138.62,79.27 156.97,89.27C158.55,90.18 160.55,89.82 161.72,88.42C162.88,87.02 162.87,84.99 161.69,83.6L89.84,2.57C89.26,1.92 88.44,1.56 87.57,1.56C86.7,1.57 85.88,1.95 85.32,2.61L16.33,82.97C15.16,84.41 15.19,86.48 16.4,87.89C17.61,89.3 19.66,89.64 21.26,88.7Z " /><path  id="路径 12" style="stroke:#262E88; stroke-width:10; stroke-opacity:1; stroke-dasharray:0 0" transform="translate(15.626417513171589 215.00000000000003)  rotate(90 89 50.99999999999999)" d="M21.26,88.7C0,102 47.46,67.43 87.56,67.19C111.3,67.05 138.62,79.27 156.97,89.27C158.55,90.18 160.55,89.82 161.72,88.42C162.88,87.02 162.87,84.99 161.69,83.6L89.84,2.57C89.26,1.92 88.44,1.56 87.57,1.56C86.7,1.57 85.88,1.95 85.32,2.61L16.33,82.97C15.16,84.41 15.19,86.48 16.4,87.89C17.61,89.3 19.66,89.64 21.26,88.7Z " /><path  id="圆形 1" style="stroke:#262E88; stroke-width:15; stroke-opacity:1; stroke-dasharray:0 0" transform="translate(51 51)  rotate(0 215.5 215.5)" d="M215.5,0C96.48,0 0,96.48 0,215.5C0,334.52 96.48,431 215.5,431C334.52,431 431,334.52 431,215.5C431,96.48 334.52,0 215.5,0Z " /><g opacity="1" transform="translate(126 124)  rotate(0 26 38.5)"><text><tspan x="0" y="61.919999999999995" font-size="72" line-height="0" fill="#262E88" opacity="1" font-family="PangMenZhengDao" letter-spacing="0" >N</tspan></text></g><g opacity="1" transform="translate(346 124)  rotate(0 25.5 38.5)"><text><tspan x="0" y="61.919999999999995" font-size="72" line-height="0" fill="#262E88" opacity="1" font-family="PangMenZhengDao" letter-spacing="0" >U</tspan></text></g><g opacity="1" transform="translate(346 333)  rotate(0 26 38.5)"><text><tspan x="0" y="61.919999999999995" font-size="72" line-height="0" fill="#262E88" opacity="1" font-family="PangMenZhengDao" letter-spacing="0" >A</tspan></text></g><g opacity="1" transform="translate(126 333)  rotate(0 26 38.5)"><text><tspan x="0" y="61.919999999999995" font-size="72" line-height="0" fill="#262E88" opacity="1" font-family="PangMenZhengDao" letter-spacing="0" >A</tspan></text></g><path id="路径 1" fill-rule="evenodd" style="fill:#26884F" transform="translate(150 204)  rotate(0 113 64.50000000000001)" opacity="1" d="M201.11,22.31C151.85,-6.1 82.31,-12.65 41.3,34.24C30.53,46.58 19.14,74.96 23.97,91.58C15.2,94.85 -0.24,106.98 0,117.61C0.22,125.28 4.76,126.05 8.96,121.74C12.25,118.41 12.05,109.56 15.63,105.4C21.4,98.71 27.44,96.15 35.12,101.52C48.24,110.72 61.83,120.73 77.28,125.72C87.91,129.16 101.01,129.79 112.02,128.09C133.48,124.81 152.88,112 170.1,99.58C191.26,84.28 211.35,65.27 225.73,43.33C228.88,38.47 203.32,23.6 201.11,22.31Z " /><path id="路径 2"  style="fill:#FFFF00" transform="translate(200.4451019066404 249.04761904761904)  rotate(0 62.79900441438902 13.821428571428571)" opacity="1" d="M1.38939 29.7212Q1.18469 29.8581 0.957224 29.9523Q0.729759 30.0466 0.488273 30.0947Q0.246786 30.1428 0.000557737 30.1429Q-0.245671 30.1429 -0.487179 30.0949Q-0.728687 30.0469 -0.956193 29.9528Q-1.1837 29.8586 -1.38846 29.7218Q-1.59322 29.5851 -1.76737 29.411Q-1.94152 29.2369 -2.07836 29.0322Q-2.21521 28.8275 -2.30949 28.6001Q-2.40376 28.3726 -2.45185 28.1311Q-2.49994 27.8896 -2.5 27.6434Q-2.50005 27.3972 -2.45207 27.1557Q-2.40409 26.9142 -2.30991 26.6867Q-2.21573 26.4592 -2.07898 26.2544Q-1.94223 26.0496 -1.76816 25.8755Q-1.59409 25.7013 -1.38939 25.5645L1.38939 29.7212ZM128.097 -0.0686791Q128.094 -0.191385 128.078 -0.313171Q128.063 -0.434957 128.036 -0.55465Q128.008 -0.674344 127.97 -0.790793Q127.931 -0.907243 127.881 -1.01933Q127.831 -1.13141 127.77 -1.23806Q127.709 -1.3447 127.638 -1.44488Q127.567 -1.54505 127.487 -1.63779Q127.406 -1.73054 127.317 -1.81496Q127.228 -1.89937 127.131 -1.97466Q127.034 -2.04994 126.93 -2.11536Q126.827 -2.18078 126.717 -2.23571Q126.607 -2.29064 126.492 -2.33456Q126.378 -2.37847 126.259 -2.41094Q126.141 -2.44341 126.02 -2.46413Q125.899 -2.48485 125.777 -2.49362Q125.654 -2.50238 125.531 -2.49911L125.529 -2.499Q122.488 -2.41537 117.477 -2.17153Q107.47 -1.68461 97.5415 -0.881944Q83.6328 0.242488 71.8551 1.83955Q57.082 3.84279 46.4955 6.48417Q35.9141 9.12084 26.0574 12.6832Q18.1613 15.537 11.0819 18.8536Q6.0079 21.2307 1.84236 23.6081Q0.528363 24.358 -0.541433 25.0215Q-1.09325 25.3637 -1.38934 25.5616L1.38934 29.7184Q1.61448 29.5679 2.0937 29.2707Q3.08598 28.6554 4.32076 27.9506Q8.31142 25.6731 13.2031 23.3814Q20.0756 20.1617 27.7569 17.3855Q37.3722 13.9104 47.7045 11.3358Q58.0259 8.76055 72.5269 6.7942Q84.1705 5.21532 97.9444 4.1018Q107.793 3.30559 117.72 2.82256Q122.68 2.5812 125.669 2.49906L125.669 2.499Q125.914 2.49206 126.154 2.43732Q126.394 2.38258 126.619 2.28215Q126.843 2.18172 127.044 2.03945Q127.245 1.89718 127.414 1.71853Q127.583 1.5397 127.714 1.33129Q127.845 1.12288 127.933 0.892891Q128.021 0.662904 128.062 0.42018Q128.104 0.177455 128.097 -0.0686791Z " /><path  id="路径 2" style="stroke:#FFFF00; stroke-width:5; stroke-opacity:1; stroke-dasharray:0 0" transform="translate(200.4451019066404 249.04761904761904)  rotate(0 62.79900441438902 13.821428571428571)" d="" /></g></g></svg>